# xmcd
#
# Track frame offsets:
#	150
#	18274
#	37801
#	54543
#	70209
#	89297
#	107297
#	124684
#	140109
#	157660
#	176323
#	192918
#	210373
#	230961
#	246771
#	262238
#	278068
#	292425
#	308311
#	327393
#
# Disc length: 4591 seconds
#
# Revision: 1
# Processed by: cddbd v1.5.2PL0 Copyright (c) Steve Scherf et al.
# Submitted via: dBpowerAMP V4.0
#
DISCID=1a11ed14
DTITLE=Various Artist - ERG Nu Urban Traxx Vol. 215 CAN
DYEAR=2015
DGENRE=Urban
TTITLE0=Jeremih ft. J. Cole - Planes
TTITLE1=T.I. ft. Chris Brown - Private Show
TTITLE2=Fetty Wap - Trap Queen
TTITLE3=Kid Ink ft. Dej Loaf - Be Real
TTITLE4=Big Sean ft. Drake - Blessings
TTITLE5=K Camp - Lil Bit
TTITLE6=Empire Cast ft. Jussie Smollett - Good Enough
TTITLE7=Dej Loaf - We Be On It
TTITLE8=Rich Gang ft. Young Thug and Rich Homie Quan - Tell Em
TTITLE9=Jodeci - Every Moment
TTITLE10=Casey Veggies ft. YG and IAMSU! - Backflip
TTITLE11=Logic - Buried Alive
TTITLE12=Common and John Legend - Glory
TTITLE13=OG Maco ft. 2 Chainz - U Guessed It
TTITLE14=Kiyana ft. Diamond - No Love
TTITLE15=Meek Mill - Monster
TTITLE16=Natalie La Rose ft. Jeremih - Somebody
TTITLE17=Kevin Gates ft. August Alsina - I Don't Get Tired
TTITLE18=Teyana Taylor ft. Chris Brown - Do Not Disturb
TTITLE19=Jidenna ft. Roman Gianarthur - Classic Man
EXTD=
EXTT0=
EXTT1=
EXTT2=
EXTT3=
EXTT4=
EXTT5=
EXTT6=
EXTT7=
EXTT8=
EXTT9=
EXTT10=
EXTT11=
EXTT12=
EXTT13=
EXTT14=
EXTT15=
EXTT16=
EXTT17=
EXTT18=
EXTT19=
PLAYORDER=
